#!OML:ASF I:\Actors\actors\Patient Classification 2\Patient 1\Session 1\actor1.ASF
:FULLY-SPECIFIED
:DEGREES
402
root -0.569427 18.7667 5.53947 2.70896 6.61171 -2.20125
lowerback 10.8621 4.01795 3.4246
upperback 0.395177 5.77428 0.197097
thorax -5.34226 2.7596 -2.57722
lowerneck -9.67781 -9.76542 -8.17942
upperneck 26.6444 -13.7873 6.05913
head 11.2317 -6.39731 1.75207
rclavicle -6.16729e-014 3.97569e-015
rhumerus 4.50047 -3.97749 -40.3199
rradius 69.8174
rwrist 9.3229
rhand -2.68373 -47.2784
rfingers 7.12502
rthumb 23.0175 -75.924
lclavicle -6.16729e-014 3.97569e-015
lhumerus -45.0035 -5.36 88.6229
lradius 55.4803
lwrist -0.635065
lhand -9.85203 -23.3145
lfingers 7.12502
lthumb 16.1261 6.03457
rfemur 0 0 0
rtibia 0
rfoot 0 0
rtoes 0
lfemur -10.4971 -6.87416 -11.8405
ltibia 23.9148
lfoot -18.7934 7.4642
ltoes -56.0624
403
root -0.579137 18.7715 5.51798 2.92053 6.75876 -2.16069
lowerback 11.2725 4.02508 3.52961
upperback 0.525588 5.81025 0.225304
thorax -5.42426 2.77317 -2.63913
lowerneck -9.63318 -9.86416 -7.98289
upperneck 26.3256 -13.9119 5.95846
head 11.0875 -6.45279 1.67271
rclavicle -2.41523e-014 -1.64991e-014
rhumerus 5.96013 -4.2324 -39.7858
rradius 67.5439
rwrist 10.1898
rhand -2.66575 -47.2881
rfingers 7.12502
rthumb 23.0347 -75.9315
lclavicle -2.41523e-014 -1.64991e-014
lhumerus -44.9044 -5.52771 88.6373
lradius 55.6633
lwrist -0.536173
lhand -9.87469 -23.299
lfingers 7.12502
lthumb 16.1043 6.05191
rfemur 0 0 0
rtibia 0
rfoot 0 0
rtoes 0
lfemur -10.8397 -6.95072 -11.8202
ltibia 23.8853
lfoot -18.6371 7.53134
ltoes -56.1886
404
root -0.589741 18.7771 5.49537 3.15343 6.98537 -2.15666
lowerback 11.6652 4.00266 3.69042
upperback 0.639207 5.81661 0.281002
thorax -5.51299 2.77066 -2.69846
lowerneck -9.50737 -9.95088 -8.01521
upperneck 25.96 -14.0421 6.09874
head 10.9502 -6.50927 1.71798
rclavicle -3.27995e-015 -1.59028e-015
rhumerus 7.1007 -4.35978 -39.3299
rradius 65.5973
rwrist 10.9062
rhand -2.69302 -47.3793
rfingers 7.12502
rthumb 23.0086 -76.0259
lclavicle -3.27995e-015 -1.59028e-015
lhumerus -44.8144 -5.58067 88.6774
lradius 55.8236
lwrist -0.555114
lhand -9.92828 -23.1571
lfingers 7.12502
lthumb 16.0527 6.19797
rfemur 0 0 0
rtibia 0
rfoot 0 0
rtoes 0
lfemur -11.2306 -6.98108 -11.7457
ltibia 23.846
lfoot -18.4139 7.5009
ltoes -56.2961
405
root -0.599652 18.7838 5.4728 3.3617 7.20402 -2.12285
lowerback 12.0578 4.00156 3.84607
upperback 0.786201 5.85063 0.335348
thorax -5.56431 2.7834 -2.75869
lowerneck -9.40976 -10.0712 -8.13065
upperneck 25.6033 -14.2296 6.33878
head 10.8433 -6.58757 1.80059
rclavicle -1.8487e-014 2.10712e-014
rhumerus 7.98658 -4.50251 -39.0551
rradius 63.927
rwrist 11.8563
rhand -2.75131 -47.6357
rfingers 7.12502
rthumb 22.9526 -76.2893
lclavicle -1.8487e-014 2.10712e-014
lhumerus -44.7269 -5.7428 88.7229
lradius 55.896
lwrist -0.480225
lhand -9.93841 -23.7071
lfingers 7.12502
lthumb 16.043 5.64869
rfemur 0 0 0
rtibia 0
rfoot 0 0
rtoes 0
lfemur -11.578 -7.03451 -11.7144
ltibia 23.8049
lfoot -18.2096 7.48071
ltoes -56.3305
406
root -0.610319 18.7894 5.44974 3.57136 7.4075 -2.05002
lowerback 12.4232 4.04176 3.92514
upperback 0.96606 5.92933 0.418729
thorax -5.57278 2.8221 -2.74945
lowerneck -9.42207 -10.2368 -8.18781
upperneck 25.293 -14.4471 6.428
head 10.7613 -6.68637 1.81027
rclavicle -6.94752e-014 5.56597e-015
rhumerus 8.74045 -4.62903 -38.8953
rradius 62.3712
rwrist 13.105
rhand -2.85624 -47.7515
rfingers 7.12502
rthumb 22.8519 -76.4176
lclavicle -6.94752e-014 5.56597e-015
lhumerus -44.6018 -5.97673 88.8285
lradius 55.8514
lwrist -0.284088
lhand -9.98053 -24.9045
lfingers 7.12502
lthumb 16.0024 4.45457
rfemur 0 0 0
rtibia 0
rfoot 0 0
rtoes 0
lfemur -11.921 -7.1531 -11.724
ltibia 23.7729
lfoot -18.0602 7.50464
ltoes -56.3166
407
root -0.622175 18.795 5.42547 3.8085 7.64949 -1.9923
lowerback 12.7982 4.08842 4.04317
upperback 1.12042 6.02412 0.505816
thorax -5.60841 2.86656 -2.76295
lowerneck -9.33063 -10.4249 -8.31287
upperneck 24.8786 -14.7049 6.6076
head 10.6387 -6.80573 1.8623
rclavicle 1.08636e-013 8.74653e-015
rhumerus 9.25781 -4.65565 -38.7078
rradius 60.9701
rwrist 14.3397
rhand -2.70841 -47.9528
rfingers 7.12502
rthumb 22.9938 -76.6014
lclavicle 1.08636e-013 8.74653e-015
lhumerus -44.5076 -6.29811 89.0608
lradius 56.0584
lwrist -0.175173
lhand -10.0539 -24.8269
lfingers 7.12502
lthumb 15.9317 4.53786
rfemur 0 0 0
rtibia 0
rfoot 0 0
rtoes 0
lfemur -12.3171 -7.28627 -11.7028
ltibia 23.7447
lfoot -17.8958 7.49651
ltoes -56.2599
408
root -0.633462 18.8006 5.40158 4.01866 7.9356 -1.99955
lowerback 13.2221 4.09666 4.28406
upperback 1.2619 6.09035 0.606124
thorax -5.6748 2.89292 -2.83118
lowerneck -9.20146 -10.5964 -8.50928
upperneck 24.425 -14.9496 6.8829
head 10.5095 -6.91786 1.96237
rclavicle -2.51463e-014 -2.62396e-014
rhumerus 9.52289 -4.50075 -38.463
rradius 59.8658
rwrist 15.3135
rhand -2.52781 -48.1455
rfingers 7.12502
rthumb 23.1671 -76.7723
lclavicle -2.51463e-014 -2.62396e-014
lhumerus -44.4674 -6.60183 89.3391
lradius 56.5246
lwrist -0.171774
lhand -10.0245 -23.6817
lfingers 7.12502
lthumb 15.9601 5.68073
rfemur 0 0 0
rtibia 0
rfoot 0 0
rtoes 0
lfemur -12.7095 -7.37391 -11.6082
ltibia 23.7249
lfoot -17.6974 7.40547
ltoes -56.2522
409
root -0.64424 18.8046 5.37866 4.22959 8.25339 -1.97133
lowerback 13.5424 4.07327 4.48674
upperback 1.45931 6.10472 0.725925
thorax -5.63362 2.89975 -2.83751
lowerneck -9.18678 -10.7307 -8.67368
upperneck 24.0022 -15.1173 7.06757
head 10.3977 -6.99779 2.03057
rclavicle -5.65542e-014 -2.0276e-014
rhumerus 9.75991 -4.23051 -38.2688
rradius 58.8973
rwrist 16.0082
rhand -2.62729 -48.1932
rfingers 7.12502
rthumb 23.0716 -76.832
lclavicle -5.65542e-014 -2.0276e-014
lhumerus -44.3886 -6.8156 89.546
lradius 56.8852
lwrist -0.0433548
lhand -9.9657 -23.1775
lfingers 7.12502
lthumb 16.0167 6.18045
rfemur 0 0 0
rtibia 0
rfoot 0 0
rtoes 0
lfemur -13.1202 -7.3745 -11.5558
ltibia 23.7279
lfoot -17.4538 7.24073
ltoes -56.3683
410
root -0.65534 18.8068 5.35395 4.40083 8.5922 -1.95138
lowerback 13.8783 4.09408 4.51415
upperback 1.66224 6.16305 1.0024
thorax -5.62769 2.93239 -2.59218
lowerneck -9.11816 -10.892 -8.88411
upperneck 23.5389 -15.2698 7.08432
head 10.2503 -7.09449 2.05345
rclavicle 3.67752e-014 7.15625e-015
rhumerus 10.0216 -4.01562 -38.0656
rradius 57.786
rwrist 16.7117
rhand -2.88012 -48.267
rfingers 7.12502
rthumb 22.829 -76.9359
lclavicle 3.67752e-014 7.15625e-015
lhumerus -44.3933 -7.00778 89.9455
lradius 57.1701
lwrist 0.163683
lhand -9.9981 -23.1296
lfingers 7.12502
lthumb 15.9855 6.23087
rfemur 0 0 0
rtibia 0
rfoot 0 0
rtoes 0
lfemur -13.5352 -7.27157 -11.5031
ltibia 23.781
lfoot -17.1734 6.9649
ltoes -56.5108
411
root -0.664713 18.8093 5.32626 4.5458 8.90509 -1.98184
lowerback 14.3377 4.09442 4.8742
upperback 1.83631 6.24359 1.12208
thorax -5.66518 2.96497 -2.70971
lowerneck -9.14486 -11.1007 -8.99824
upperneck 23.1468 -15.5283 7.1807
head 10.1563 -7.21881 2.06722
rclavicle 2.14687e-014 -8.74653e-015
rhumerus 10.2826 -3.81804 -38.0148
rradius 56.4476
rwrist 17.3211
rhand -3.37532 -48.2407
rfingers 7.12502
rthumb 22.3537 -76.9675
lclavicle 2.14687e-014 -8.74653e-015
lhumerus -44.418 -7.40887 90.1503
lradius 57.3791
lwrist 0.43826
lhand -10.0249 -23.7342
lfingers 7.12502
lthumb 15.9597 5.62833
rfemur 0 0 0
rtibia 0
rfoot 0 0
rtoes 0
lfemur -13.9805 -7.23142 -11.4056
ltibia 23.9429
lfoot -16.9812 6.72104
ltoes -56.5951
412
root -0.665092 18.8124 5.29533 4.66913 9.21114 -2.13813
lowerback 14.8283 4.02965 5.59798
upperback 2.0023 6.2984 1.19699
thorax -5.68425 2.9775 -3.07278
lowerneck -9.23322 -11.2819 -9.15595
upperneck 22.7575 -15.767 7.40025
head 10.0893 -7.32341 2.12826
rclavicle 6.02318e-014 -1.74931e-014
rhumerus 10.7244 -3.41712 -37.9306
rradius 54.7701
rwrist 17.6383
rhand -3.98075 -48.2963
rfingers 7.12502
rthumb 21.7724 -77.0917
lclavicle 6.02318e-014 -1.74931e-014
lhumerus -44.3799 -7.64426 90.1853
lradius 57.2744
lwrist 0.670112
lhand -10.0687 -25.5695
lfingers 7.12502
lthumb 15.9175 3.79638
rfemur 0 0 0
rtibia 0
rfoot 0 0
rtoes 0
lfemur -14.4095 -7.3143 -11.1993
ltibia 24.1071
lfoot -16.8535 6.61781
ltoes -56.6328
413
root -0.65393 18.8133 5.25923 4.55849 9.57127 -2.73303
lowerback 15.4915 3.83736 6.99382
upperback 2.17355 6.32031 1.33507
thorax -5.72735 2.95955 -3.74784
lowerneck -9.22301 -11.38 -9.17802
upperneck 22.2749 -15.8965 7.56342
head 9.9435 -7.37896 2.17354
rclavicle 3.89618e-014 4.21423e-014
rhumerus 11.4255 -3.54534 -38.4729
rradius 52.3293
rwrist 18.6582
rhand -4.52234 -48.2581
rfingers 7.12502
rthumb 21.2523 -77.1129
lclavicle 3.89618e-014 4.21423e-014
lhumerus -44.4098 -8.08406 90.4226
lradius 57.5575
lwrist 1.41648
lhand -10.5346 -25.2403
lfingers 7.12502
lthumb 15.4688 4.16081
rfemur 0 0 0
rtibia 0
rfoot 0 0
rtoes 0
lfemur -14.6782 -7.29406 -10.5695
ltibia 24.3015
lfoot -16.7347 6.37216
ltoes -56.6377
